<mxfile host="Electron" modified="2024-03-18T14:08:57.802Z" agent="Mozilla/5.0 (Windows NT 10.0; Win64; x64) AppleWebKit/537.36 (KHTML, like Gecko) draw.io/23.1.5 Chrome/120.0.6099.109 Electron/28.1.0 Safari/537.36" etag="PzUyjj78c6PcVukY601P" version="23.1.5" type="device" pages="7">
  <diagram id="wZvjUjRIg2qYmhXsiTmr" name="lab-01.1">
    <mxGraphModel dx="1434" dy="836" grid="0" gridSize="10" guides="1" tooltips="1" connect="1" arrows="1" fold="1" page="1" pageScale="1" pageWidth="2339" pageHeight="3300" math="0" shadow="0">
      <root>
        <mxCell id="0" />
        <mxCell id="1" parent="0" />
        <mxCell id="_bJBfP5osNERD6AyOn_S-17" style="edgeStyle=orthogonalEdgeStyle;rounded=0;orthogonalLoop=1;jettySize=auto;html=1;" parent="1" source="_bJBfP5osNERD6AyOn_S-3" target="_bJBfP5osNERD6AyOn_S-2" edge="1">
          <mxGeometry relative="1" as="geometry" />
        </mxCell>
        <mxCell id="_bJBfP5osNERD6AyOn_S-3" value="" style="fillColor=none;strokeColor=#5A6C86;dashed=1;verticalAlign=top;fontStyle=0;fontColor=#5A6C86;whiteSpace=wrap;html=1;" parent="1" vertex="1">
          <mxGeometry x="453" y="296" width="259" height="322" as="geometry" />
        </mxCell>
        <mxCell id="_bJBfP5osNERD6AyOn_S-5" style="edgeStyle=orthogonalEdgeStyle;rounded=0;orthogonalLoop=1;jettySize=auto;html=1;" parent="1" source="_bJBfP5osNERD6AyOn_S-1" target="_bJBfP5osNERD6AyOn_S-4" edge="1">
          <mxGeometry relative="1" as="geometry" />
        </mxCell>
        <mxCell id="_bJBfP5osNERD6AyOn_S-1" value="Desktop" style="image;sketch=0;aspect=fixed;html=1;points=[];align=center;fontSize=12;image=img/lib/mscae/Docker.svg;" parent="1" vertex="1">
          <mxGeometry x="492" y="327" width="100.95" height="82.78" as="geometry" />
        </mxCell>
        <mxCell id="_bJBfP5osNERD6AyOn_S-12" style="edgeStyle=orthogonalEdgeStyle;rounded=0;orthogonalLoop=1;jettySize=auto;html=1;" parent="1" source="_bJBfP5osNERD6AyOn_S-2" edge="1">
          <mxGeometry relative="1" as="geometry">
            <mxPoint x="838" y="259" as="targetPoint" />
          </mxGeometry>
        </mxCell>
        <mxCell id="_bJBfP5osNERD6AyOn_S-13" value="BROWSER" style="edgeLabel;html=1;align=center;verticalAlign=middle;resizable=0;points=[];" parent="_bJBfP5osNERD6AyOn_S-12" vertex="1" connectable="0">
          <mxGeometry x="0.0566" y="-1" relative="1" as="geometry">
            <mxPoint x="-29" y="-1" as="offset" />
          </mxGeometry>
        </mxCell>
        <mxCell id="_bJBfP5osNERD6AyOn_S-2" value="" style="verticalLabelPosition=bottom;sketch=0;aspect=fixed;html=1;verticalAlign=top;strokeColor=none;align=center;outlineConnect=0;shape=mxgraph.citrix.laptop_2;" parent="1" vertex="1">
          <mxGeometry x="597" y="153" width="118" height="87.99" as="geometry" />
        </mxCell>
        <mxCell id="_bJBfP5osNERD6AyOn_S-8" style="edgeStyle=orthogonalEdgeStyle;rounded=0;orthogonalLoop=1;jettySize=auto;html=1;" parent="1" source="_bJBfP5osNERD6AyOn_S-4" target="_bJBfP5osNERD6AyOn_S-6" edge="1">
          <mxGeometry relative="1" as="geometry" />
        </mxCell>
        <mxCell id="_bJBfP5osNERD6AyOn_S-4" value="Jenkins" style="sketch=0;outlineConnect=0;fontColor=#232F3E;gradientColor=none;strokeColor=#232F3E;fillColor=#ffffff;dashed=0;verticalLabelPosition=bottom;verticalAlign=top;align=center;html=1;fontSize=12;fontStyle=0;aspect=fixed;shape=mxgraph.aws4.resourceIcon;resIcon=mxgraph.aws4.container_1;" parent="1" vertex="1">
          <mxGeometry x="604" y="427" width="60" height="60" as="geometry" />
        </mxCell>
        <mxCell id="_bJBfP5osNERD6AyOn_S-6" value="Volume" style="sketch=0;outlineConnect=0;fontColor=#232F3E;gradientColor=none;strokeColor=#232F3E;fillColor=#ffffff;dashed=0;verticalLabelPosition=bottom;verticalAlign=top;align=center;html=1;fontSize=12;fontStyle=0;aspect=fixed;shape=mxgraph.aws4.resourceIcon;resIcon=mxgraph.aws4.volume;" parent="1" vertex="1">
          <mxGeometry x="525" y="496" width="60" height="60" as="geometry" />
        </mxCell>
        <mxCell id="_bJBfP5osNERD6AyOn_S-9" value="" style="strokeWidth=1;shadow=0;dashed=0;align=center;html=1;shape=mxgraph.mockup.containers.browserWindow;rSize=0;strokeColor=#666666;strokeColor2=#008cff;strokeColor3=#c4c4c4;mainText=,;recursiveResize=0;" parent="1" vertex="1">
          <mxGeometry x="749" y="264" width="337" height="164" as="geometry" />
        </mxCell>
        <mxCell id="_bJBfP5osNERD6AyOn_S-10" value="localhost" style="strokeWidth=1;shadow=0;dashed=0;align=center;html=1;shape=mxgraph.mockup.containers.anchor;fontSize=17;fontColor=#666666;align=left;whiteSpace=wrap;" parent="_bJBfP5osNERD6AyOn_S-9" vertex="1">
          <mxGeometry x="60" y="12" width="110" height="26" as="geometry" />
        </mxCell>
        <mxCell id="_bJBfP5osNERD6AyOn_S-11" value="http://localhost:8080" style="strokeWidth=1;shadow=0;dashed=0;align=center;html=1;shape=mxgraph.mockup.containers.anchor;rSize=0;fontSize=17;fontColor=#666666;align=left;" parent="_bJBfP5osNERD6AyOn_S-9" vertex="1">
          <mxGeometry x="130" y="60" width="250" height="26" as="geometry" />
        </mxCell>
      </root>
    </mxGraphModel>
  </diagram>
  <diagram name="lab-02.1" id="KTBx0IpS1IQjZLeOnsBa">
    <mxGraphModel dx="880" dy="524" grid="0" gridSize="10" guides="1" tooltips="1" connect="1" arrows="1" fold="1" page="1" pageScale="1" pageWidth="2339" pageHeight="3300" math="0" shadow="0">
      <root>
        <mxCell id="8WUU98PnDPtwxKO-ezzE-0" />
        <mxCell id="8WUU98PnDPtwxKO-ezzE-1" parent="8WUU98PnDPtwxKO-ezzE-0" />
        <mxCell id="8WUU98PnDPtwxKO-ezzE-2" style="edgeStyle=orthogonalEdgeStyle;rounded=0;orthogonalLoop=1;jettySize=auto;html=1;" edge="1" parent="8WUU98PnDPtwxKO-ezzE-1" source="8WUU98PnDPtwxKO-ezzE-3" target="8WUU98PnDPtwxKO-ezzE-8">
          <mxGeometry relative="1" as="geometry" />
        </mxCell>
        <mxCell id="8WUU98PnDPtwxKO-ezzE-3" value="" style="fillColor=none;strokeColor=#5A6C86;dashed=1;verticalAlign=top;fontStyle=0;fontColor=#5A6C86;whiteSpace=wrap;html=1;" vertex="1" parent="8WUU98PnDPtwxKO-ezzE-1">
          <mxGeometry x="453" y="296" width="259" height="322" as="geometry" />
        </mxCell>
        <mxCell id="8WUU98PnDPtwxKO-ezzE-4" style="edgeStyle=orthogonalEdgeStyle;rounded=0;orthogonalLoop=1;jettySize=auto;html=1;" edge="1" parent="8WUU98PnDPtwxKO-ezzE-1" source="8WUU98PnDPtwxKO-ezzE-5" target="8WUU98PnDPtwxKO-ezzE-10">
          <mxGeometry relative="1" as="geometry" />
        </mxCell>
        <mxCell id="8WUU98PnDPtwxKO-ezzE-5" value="Desktop" style="image;sketch=0;aspect=fixed;html=1;points=[];align=center;fontSize=12;image=img/lib/mscae/Docker.svg;" vertex="1" parent="8WUU98PnDPtwxKO-ezzE-1">
          <mxGeometry x="492" y="327" width="100.95" height="82.78" as="geometry" />
        </mxCell>
        <mxCell id="8WUU98PnDPtwxKO-ezzE-6" style="edgeStyle=orthogonalEdgeStyle;rounded=0;orthogonalLoop=1;jettySize=auto;html=1;" edge="1" parent="8WUU98PnDPtwxKO-ezzE-1" source="8WUU98PnDPtwxKO-ezzE-8">
          <mxGeometry relative="1" as="geometry">
            <mxPoint x="838" y="259" as="targetPoint" />
          </mxGeometry>
        </mxCell>
        <mxCell id="8WUU98PnDPtwxKO-ezzE-7" value="BROWSER" style="edgeLabel;html=1;align=center;verticalAlign=middle;resizable=0;points=[];" vertex="1" connectable="0" parent="8WUU98PnDPtwxKO-ezzE-6">
          <mxGeometry x="0.0566" y="-1" relative="1" as="geometry">
            <mxPoint x="-29" y="-1" as="offset" />
          </mxGeometry>
        </mxCell>
        <mxCell id="8WUU98PnDPtwxKO-ezzE-8" value="" style="verticalLabelPosition=bottom;sketch=0;aspect=fixed;html=1;verticalAlign=top;strokeColor=none;align=center;outlineConnect=0;shape=mxgraph.citrix.laptop_2;" vertex="1" parent="8WUU98PnDPtwxKO-ezzE-1">
          <mxGeometry x="597" y="153" width="118" height="87.99" as="geometry" />
        </mxCell>
        <mxCell id="8WUU98PnDPtwxKO-ezzE-9" style="edgeStyle=orthogonalEdgeStyle;rounded=0;orthogonalLoop=1;jettySize=auto;html=1;" edge="1" parent="8WUU98PnDPtwxKO-ezzE-1" source="8WUU98PnDPtwxKO-ezzE-10" target="8WUU98PnDPtwxKO-ezzE-11">
          <mxGeometry relative="1" as="geometry" />
        </mxCell>
        <mxCell id="8WUU98PnDPtwxKO-ezzE-10" value="Jenkins" style="sketch=0;outlineConnect=0;fontColor=#232F3E;gradientColor=none;strokeColor=#232F3E;fillColor=#ffffff;dashed=0;verticalLabelPosition=bottom;verticalAlign=top;align=center;html=1;fontSize=12;fontStyle=0;aspect=fixed;shape=mxgraph.aws4.resourceIcon;resIcon=mxgraph.aws4.container_1;" vertex="1" parent="8WUU98PnDPtwxKO-ezzE-1">
          <mxGeometry x="604" y="427" width="60" height="60" as="geometry" />
        </mxCell>
        <mxCell id="8WUU98PnDPtwxKO-ezzE-11" value="Volume" style="sketch=0;outlineConnect=0;fontColor=#232F3E;gradientColor=none;strokeColor=#232F3E;fillColor=#ffffff;dashed=0;verticalLabelPosition=bottom;verticalAlign=top;align=center;html=1;fontSize=12;fontStyle=0;aspect=fixed;shape=mxgraph.aws4.resourceIcon;resIcon=mxgraph.aws4.volume;" vertex="1" parent="8WUU98PnDPtwxKO-ezzE-1">
          <mxGeometry x="525" y="496" width="60" height="60" as="geometry" />
        </mxCell>
        <mxCell id="8WUU98PnDPtwxKO-ezzE-12" value="" style="strokeWidth=1;shadow=0;dashed=0;align=center;html=1;shape=mxgraph.mockup.containers.browserWindow;rSize=0;strokeColor=#666666;strokeColor2=#008cff;strokeColor3=#c4c4c4;mainText=,;recursiveResize=0;" vertex="1" parent="8WUU98PnDPtwxKO-ezzE-1">
          <mxGeometry x="749" y="264" width="337" height="164" as="geometry" />
        </mxCell>
        <mxCell id="8WUU98PnDPtwxKO-ezzE-13" value="localhost" style="strokeWidth=1;shadow=0;dashed=0;align=center;html=1;shape=mxgraph.mockup.containers.anchor;fontSize=17;fontColor=#666666;align=left;whiteSpace=wrap;" vertex="1" parent="8WUU98PnDPtwxKO-ezzE-12">
          <mxGeometry x="60" y="12" width="110" height="26" as="geometry" />
        </mxCell>
        <mxCell id="8WUU98PnDPtwxKO-ezzE-14" value="http://localhost:8080" style="strokeWidth=1;shadow=0;dashed=0;align=center;html=1;shape=mxgraph.mockup.containers.anchor;rSize=0;fontSize=17;fontColor=#666666;align=left;" vertex="1" parent="8WUU98PnDPtwxKO-ezzE-12">
          <mxGeometry x="130" y="60" width="250" height="26" as="geometry" />
        </mxCell>
      </root>
    </mxGraphModel>
  </diagram>
  <diagram name="lab-03.1" id="gdLI0S09FO4ofjCKSEx6">
    <mxGraphModel dx="1434" dy="836" grid="0" gridSize="10" guides="1" tooltips="1" connect="1" arrows="1" fold="1" page="1" pageScale="1" pageWidth="2339" pageHeight="3300" math="0" shadow="0">
      <root>
        <mxCell id="HLAplUe1blFBoefhECN0-0" />
        <mxCell id="HLAplUe1blFBoefhECN0-1" parent="HLAplUe1blFBoefhECN0-0" />
        <mxCell id="HLAplUe1blFBoefhECN0-2" style="edgeStyle=orthogonalEdgeStyle;rounded=0;orthogonalLoop=1;jettySize=auto;html=1;" edge="1" parent="HLAplUe1blFBoefhECN0-1" source="HLAplUe1blFBoefhECN0-3" target="HLAplUe1blFBoefhECN0-8">
          <mxGeometry relative="1" as="geometry" />
        </mxCell>
        <mxCell id="HLAplUe1blFBoefhECN0-3" value="" style="fillColor=none;strokeColor=#5A6C86;dashed=1;verticalAlign=top;fontStyle=0;fontColor=#5A6C86;whiteSpace=wrap;html=1;" vertex="1" parent="HLAplUe1blFBoefhECN0-1">
          <mxGeometry x="453" y="296" width="259" height="322" as="geometry" />
        </mxCell>
        <mxCell id="HLAplUe1blFBoefhECN0-4" style="edgeStyle=orthogonalEdgeStyle;rounded=0;orthogonalLoop=1;jettySize=auto;html=1;" edge="1" parent="HLAplUe1blFBoefhECN0-1" source="HLAplUe1blFBoefhECN0-5" target="HLAplUe1blFBoefhECN0-10">
          <mxGeometry relative="1" as="geometry" />
        </mxCell>
        <mxCell id="HLAplUe1blFBoefhECN0-5" value="Desktop" style="image;sketch=0;aspect=fixed;html=1;points=[];align=center;fontSize=12;image=img/lib/mscae/Docker.svg;" vertex="1" parent="HLAplUe1blFBoefhECN0-1">
          <mxGeometry x="492" y="327" width="100.95" height="82.78" as="geometry" />
        </mxCell>
        <mxCell id="HLAplUe1blFBoefhECN0-6" style="edgeStyle=orthogonalEdgeStyle;rounded=0;orthogonalLoop=1;jettySize=auto;html=1;" edge="1" parent="HLAplUe1blFBoefhECN0-1" source="HLAplUe1blFBoefhECN0-8">
          <mxGeometry relative="1" as="geometry">
            <mxPoint x="838" y="259" as="targetPoint" />
          </mxGeometry>
        </mxCell>
        <mxCell id="HLAplUe1blFBoefhECN0-7" value="BROWSER" style="edgeLabel;html=1;align=center;verticalAlign=middle;resizable=0;points=[];" vertex="1" connectable="0" parent="HLAplUe1blFBoefhECN0-6">
          <mxGeometry x="0.0566" y="-1" relative="1" as="geometry">
            <mxPoint x="-29" y="-1" as="offset" />
          </mxGeometry>
        </mxCell>
        <mxCell id="HLAplUe1blFBoefhECN0-8" value="" style="verticalLabelPosition=bottom;sketch=0;aspect=fixed;html=1;verticalAlign=top;strokeColor=none;align=center;outlineConnect=0;shape=mxgraph.citrix.laptop_2;" vertex="1" parent="HLAplUe1blFBoefhECN0-1">
          <mxGeometry x="597" y="153" width="118" height="87.99" as="geometry" />
        </mxCell>
        <mxCell id="HLAplUe1blFBoefhECN0-9" style="edgeStyle=orthogonalEdgeStyle;rounded=0;orthogonalLoop=1;jettySize=auto;html=1;" edge="1" parent="HLAplUe1blFBoefhECN0-1" source="HLAplUe1blFBoefhECN0-10" target="HLAplUe1blFBoefhECN0-11">
          <mxGeometry relative="1" as="geometry" />
        </mxCell>
        <mxCell id="HLAplUe1blFBoefhECN0-10" value="Jenkins" style="sketch=0;outlineConnect=0;fontColor=#232F3E;gradientColor=none;strokeColor=#232F3E;fillColor=#ffffff;dashed=0;verticalLabelPosition=bottom;verticalAlign=top;align=center;html=1;fontSize=12;fontStyle=0;aspect=fixed;shape=mxgraph.aws4.resourceIcon;resIcon=mxgraph.aws4.container_1;" vertex="1" parent="HLAplUe1blFBoefhECN0-1">
          <mxGeometry x="604" y="427" width="60" height="60" as="geometry" />
        </mxCell>
        <mxCell id="HLAplUe1blFBoefhECN0-11" value="Volume" style="sketch=0;outlineConnect=0;fontColor=#232F3E;gradientColor=none;strokeColor=#232F3E;fillColor=#ffffff;dashed=0;verticalLabelPosition=bottom;verticalAlign=top;align=center;html=1;fontSize=12;fontStyle=0;aspect=fixed;shape=mxgraph.aws4.resourceIcon;resIcon=mxgraph.aws4.volume;" vertex="1" parent="HLAplUe1blFBoefhECN0-1">
          <mxGeometry x="525" y="496" width="60" height="60" as="geometry" />
        </mxCell>
        <mxCell id="HLAplUe1blFBoefhECN0-12" value="" style="strokeWidth=1;shadow=0;dashed=0;align=center;html=1;shape=mxgraph.mockup.containers.browserWindow;rSize=0;strokeColor=#666666;strokeColor2=#008cff;strokeColor3=#c4c4c4;mainText=,;recursiveResize=0;" vertex="1" parent="HLAplUe1blFBoefhECN0-1">
          <mxGeometry x="749" y="264" width="337" height="164" as="geometry" />
        </mxCell>
        <mxCell id="HLAplUe1blFBoefhECN0-13" value="localhost" style="strokeWidth=1;shadow=0;dashed=0;align=center;html=1;shape=mxgraph.mockup.containers.anchor;fontSize=17;fontColor=#666666;align=left;whiteSpace=wrap;" vertex="1" parent="HLAplUe1blFBoefhECN0-12">
          <mxGeometry x="60" y="12" width="110" height="26" as="geometry" />
        </mxCell>
        <mxCell id="HLAplUe1blFBoefhECN0-14" value="http://localhost:8080" style="strokeWidth=1;shadow=0;dashed=0;align=center;html=1;shape=mxgraph.mockup.containers.anchor;rSize=0;fontSize=17;fontColor=#666666;align=left;" vertex="1" parent="HLAplUe1blFBoefhECN0-12">
          <mxGeometry x="130" y="60" width="250" height="26" as="geometry" />
        </mxCell>
      </root>
    </mxGraphModel>
  </diagram>
  <diagram name="lab-04.1" id="pPpVYb4yFFSat493rHRL">
    <mxGraphModel dx="1434" dy="836" grid="0" gridSize="10" guides="1" tooltips="1" connect="1" arrows="1" fold="1" page="1" pageScale="1" pageWidth="2339" pageHeight="3300" math="0" shadow="0">
      <root>
        <mxCell id="dWZ8WScJTdeyuhjr9mQT-0" />
        <mxCell id="dWZ8WScJTdeyuhjr9mQT-1" parent="dWZ8WScJTdeyuhjr9mQT-0" />
        <mxCell id="dWZ8WScJTdeyuhjr9mQT-2" style="edgeStyle=orthogonalEdgeStyle;rounded=0;orthogonalLoop=1;jettySize=auto;html=1;" edge="1" parent="dWZ8WScJTdeyuhjr9mQT-1" source="dWZ8WScJTdeyuhjr9mQT-3" target="dWZ8WScJTdeyuhjr9mQT-8">
          <mxGeometry relative="1" as="geometry" />
        </mxCell>
        <mxCell id="dWZ8WScJTdeyuhjr9mQT-3" value="" style="fillColor=none;strokeColor=#5A6C86;dashed=1;verticalAlign=top;fontStyle=0;fontColor=#5A6C86;whiteSpace=wrap;html=1;" vertex="1" parent="dWZ8WScJTdeyuhjr9mQT-1">
          <mxGeometry x="453" y="296" width="259" height="322" as="geometry" />
        </mxCell>
        <mxCell id="dWZ8WScJTdeyuhjr9mQT-4" style="edgeStyle=orthogonalEdgeStyle;rounded=0;orthogonalLoop=1;jettySize=auto;html=1;" edge="1" parent="dWZ8WScJTdeyuhjr9mQT-1" source="dWZ8WScJTdeyuhjr9mQT-5" target="dWZ8WScJTdeyuhjr9mQT-10">
          <mxGeometry relative="1" as="geometry" />
        </mxCell>
        <mxCell id="dWZ8WScJTdeyuhjr9mQT-5" value="Desktop" style="image;sketch=0;aspect=fixed;html=1;points=[];align=center;fontSize=12;image=img/lib/mscae/Docker.svg;" vertex="1" parent="dWZ8WScJTdeyuhjr9mQT-1">
          <mxGeometry x="492" y="327" width="100.95" height="82.78" as="geometry" />
        </mxCell>
        <mxCell id="dWZ8WScJTdeyuhjr9mQT-6" style="edgeStyle=orthogonalEdgeStyle;rounded=0;orthogonalLoop=1;jettySize=auto;html=1;" edge="1" parent="dWZ8WScJTdeyuhjr9mQT-1" source="dWZ8WScJTdeyuhjr9mQT-8">
          <mxGeometry relative="1" as="geometry">
            <mxPoint x="838" y="259" as="targetPoint" />
          </mxGeometry>
        </mxCell>
        <mxCell id="dWZ8WScJTdeyuhjr9mQT-7" value="BROWSER" style="edgeLabel;html=1;align=center;verticalAlign=middle;resizable=0;points=[];" vertex="1" connectable="0" parent="dWZ8WScJTdeyuhjr9mQT-6">
          <mxGeometry x="0.0566" y="-1" relative="1" as="geometry">
            <mxPoint x="-29" y="-1" as="offset" />
          </mxGeometry>
        </mxCell>
        <mxCell id="dWZ8WScJTdeyuhjr9mQT-8" value="" style="verticalLabelPosition=bottom;sketch=0;aspect=fixed;html=1;verticalAlign=top;strokeColor=none;align=center;outlineConnect=0;shape=mxgraph.citrix.laptop_2;" vertex="1" parent="dWZ8WScJTdeyuhjr9mQT-1">
          <mxGeometry x="597" y="153" width="118" height="87.99" as="geometry" />
        </mxCell>
        <mxCell id="dWZ8WScJTdeyuhjr9mQT-9" style="edgeStyle=orthogonalEdgeStyle;rounded=0;orthogonalLoop=1;jettySize=auto;html=1;" edge="1" parent="dWZ8WScJTdeyuhjr9mQT-1" source="dWZ8WScJTdeyuhjr9mQT-10" target="dWZ8WScJTdeyuhjr9mQT-11">
          <mxGeometry relative="1" as="geometry" />
        </mxCell>
        <mxCell id="dWZ8WScJTdeyuhjr9mQT-10" value="Jenkins" style="sketch=0;outlineConnect=0;fontColor=#232F3E;gradientColor=none;strokeColor=#232F3E;fillColor=#ffffff;dashed=0;verticalLabelPosition=bottom;verticalAlign=top;align=center;html=1;fontSize=12;fontStyle=0;aspect=fixed;shape=mxgraph.aws4.resourceIcon;resIcon=mxgraph.aws4.container_1;" vertex="1" parent="dWZ8WScJTdeyuhjr9mQT-1">
          <mxGeometry x="604" y="427" width="60" height="60" as="geometry" />
        </mxCell>
        <mxCell id="dWZ8WScJTdeyuhjr9mQT-11" value="Volume" style="sketch=0;outlineConnect=0;fontColor=#232F3E;gradientColor=none;strokeColor=#232F3E;fillColor=#ffffff;dashed=0;verticalLabelPosition=bottom;verticalAlign=top;align=center;html=1;fontSize=12;fontStyle=0;aspect=fixed;shape=mxgraph.aws4.resourceIcon;resIcon=mxgraph.aws4.volume;" vertex="1" parent="dWZ8WScJTdeyuhjr9mQT-1">
          <mxGeometry x="525" y="496" width="60" height="60" as="geometry" />
        </mxCell>
        <mxCell id="dWZ8WScJTdeyuhjr9mQT-12" value="" style="strokeWidth=1;shadow=0;dashed=0;align=center;html=1;shape=mxgraph.mockup.containers.browserWindow;rSize=0;strokeColor=#666666;strokeColor2=#008cff;strokeColor3=#c4c4c4;mainText=,;recursiveResize=0;" vertex="1" parent="dWZ8WScJTdeyuhjr9mQT-1">
          <mxGeometry x="749" y="264" width="337" height="164" as="geometry" />
        </mxCell>
        <mxCell id="dWZ8WScJTdeyuhjr9mQT-13" value="localhost" style="strokeWidth=1;shadow=0;dashed=0;align=center;html=1;shape=mxgraph.mockup.containers.anchor;fontSize=17;fontColor=#666666;align=left;whiteSpace=wrap;" vertex="1" parent="dWZ8WScJTdeyuhjr9mQT-12">
          <mxGeometry x="60" y="12" width="110" height="26" as="geometry" />
        </mxCell>
        <mxCell id="dWZ8WScJTdeyuhjr9mQT-14" value="http://localhost:8080" style="strokeWidth=1;shadow=0;dashed=0;align=center;html=1;shape=mxgraph.mockup.containers.anchor;rSize=0;fontSize=17;fontColor=#666666;align=left;" vertex="1" parent="dWZ8WScJTdeyuhjr9mQT-12">
          <mxGeometry x="130" y="60" width="250" height="26" as="geometry" />
        </mxCell>
      </root>
    </mxGraphModel>
  </diagram>
  <diagram name="lab-05.1" id="oGcjUG3uut8QTMhT1yMD">
    <mxGraphModel dx="1434" dy="836" grid="0" gridSize="10" guides="1" tooltips="1" connect="1" arrows="1" fold="1" page="1" pageScale="1" pageWidth="2339" pageHeight="3300" math="0" shadow="0">
      <root>
        <mxCell id="mXmLVD-JZLKuIexKcMJY-0" />
        <mxCell id="mXmLVD-JZLKuIexKcMJY-1" parent="mXmLVD-JZLKuIexKcMJY-0" />
        <mxCell id="mXmLVD-JZLKuIexKcMJY-2" style="edgeStyle=orthogonalEdgeStyle;rounded=0;orthogonalLoop=1;jettySize=auto;html=1;" edge="1" parent="mXmLVD-JZLKuIexKcMJY-1" source="mXmLVD-JZLKuIexKcMJY-3" target="mXmLVD-JZLKuIexKcMJY-8">
          <mxGeometry relative="1" as="geometry" />
        </mxCell>
        <mxCell id="mXmLVD-JZLKuIexKcMJY-3" value="" style="fillColor=none;strokeColor=#5A6C86;dashed=1;verticalAlign=top;fontStyle=0;fontColor=#5A6C86;whiteSpace=wrap;html=1;" vertex="1" parent="mXmLVD-JZLKuIexKcMJY-1">
          <mxGeometry x="453" y="296" width="259" height="322" as="geometry" />
        </mxCell>
        <mxCell id="mXmLVD-JZLKuIexKcMJY-4" style="edgeStyle=orthogonalEdgeStyle;rounded=0;orthogonalLoop=1;jettySize=auto;html=1;" edge="1" parent="mXmLVD-JZLKuIexKcMJY-1" source="mXmLVD-JZLKuIexKcMJY-5" target="mXmLVD-JZLKuIexKcMJY-10">
          <mxGeometry relative="1" as="geometry" />
        </mxCell>
        <mxCell id="mXmLVD-JZLKuIexKcMJY-5" value="Desktop" style="image;sketch=0;aspect=fixed;html=1;points=[];align=center;fontSize=12;image=img/lib/mscae/Docker.svg;" vertex="1" parent="mXmLVD-JZLKuIexKcMJY-1">
          <mxGeometry x="492" y="327" width="100.95" height="82.78" as="geometry" />
        </mxCell>
        <mxCell id="mXmLVD-JZLKuIexKcMJY-6" style="edgeStyle=orthogonalEdgeStyle;rounded=0;orthogonalLoop=1;jettySize=auto;html=1;" edge="1" parent="mXmLVD-JZLKuIexKcMJY-1" source="mXmLVD-JZLKuIexKcMJY-8">
          <mxGeometry relative="1" as="geometry">
            <mxPoint x="838" y="259" as="targetPoint" />
          </mxGeometry>
        </mxCell>
        <mxCell id="mXmLVD-JZLKuIexKcMJY-7" value="BROWSER" style="edgeLabel;html=1;align=center;verticalAlign=middle;resizable=0;points=[];" vertex="1" connectable="0" parent="mXmLVD-JZLKuIexKcMJY-6">
          <mxGeometry x="0.0566" y="-1" relative="1" as="geometry">
            <mxPoint x="-29" y="-1" as="offset" />
          </mxGeometry>
        </mxCell>
        <mxCell id="mXmLVD-JZLKuIexKcMJY-8" value="" style="verticalLabelPosition=bottom;sketch=0;aspect=fixed;html=1;verticalAlign=top;strokeColor=none;align=center;outlineConnect=0;shape=mxgraph.citrix.laptop_2;" vertex="1" parent="mXmLVD-JZLKuIexKcMJY-1">
          <mxGeometry x="597" y="153" width="118" height="87.99" as="geometry" />
        </mxCell>
        <mxCell id="mXmLVD-JZLKuIexKcMJY-9" style="edgeStyle=orthogonalEdgeStyle;rounded=0;orthogonalLoop=1;jettySize=auto;html=1;" edge="1" parent="mXmLVD-JZLKuIexKcMJY-1" source="mXmLVD-JZLKuIexKcMJY-10" target="mXmLVD-JZLKuIexKcMJY-11">
          <mxGeometry relative="1" as="geometry" />
        </mxCell>
        <mxCell id="mXmLVD-JZLKuIexKcMJY-10" value="Jenkins" style="sketch=0;outlineConnect=0;fontColor=#232F3E;gradientColor=none;strokeColor=#232F3E;fillColor=#ffffff;dashed=0;verticalLabelPosition=bottom;verticalAlign=top;align=center;html=1;fontSize=12;fontStyle=0;aspect=fixed;shape=mxgraph.aws4.resourceIcon;resIcon=mxgraph.aws4.container_1;" vertex="1" parent="mXmLVD-JZLKuIexKcMJY-1">
          <mxGeometry x="604" y="427" width="60" height="60" as="geometry" />
        </mxCell>
        <mxCell id="mXmLVD-JZLKuIexKcMJY-11" value="Volume" style="sketch=0;outlineConnect=0;fontColor=#232F3E;gradientColor=none;strokeColor=#232F3E;fillColor=#ffffff;dashed=0;verticalLabelPosition=bottom;verticalAlign=top;align=center;html=1;fontSize=12;fontStyle=0;aspect=fixed;shape=mxgraph.aws4.resourceIcon;resIcon=mxgraph.aws4.volume;" vertex="1" parent="mXmLVD-JZLKuIexKcMJY-1">
          <mxGeometry x="525" y="496" width="60" height="60" as="geometry" />
        </mxCell>
        <mxCell id="mXmLVD-JZLKuIexKcMJY-12" value="" style="strokeWidth=1;shadow=0;dashed=0;align=center;html=1;shape=mxgraph.mockup.containers.browserWindow;rSize=0;strokeColor=#666666;strokeColor2=#008cff;strokeColor3=#c4c4c4;mainText=,;recursiveResize=0;" vertex="1" parent="mXmLVD-JZLKuIexKcMJY-1">
          <mxGeometry x="749" y="264" width="337" height="164" as="geometry" />
        </mxCell>
        <mxCell id="mXmLVD-JZLKuIexKcMJY-13" value="localhost" style="strokeWidth=1;shadow=0;dashed=0;align=center;html=1;shape=mxgraph.mockup.containers.anchor;fontSize=17;fontColor=#666666;align=left;whiteSpace=wrap;" vertex="1" parent="mXmLVD-JZLKuIexKcMJY-12">
          <mxGeometry x="60" y="12" width="110" height="26" as="geometry" />
        </mxCell>
        <mxCell id="mXmLVD-JZLKuIexKcMJY-14" value="http://localhost:8080" style="strokeWidth=1;shadow=0;dashed=0;align=center;html=1;shape=mxgraph.mockup.containers.anchor;rSize=0;fontSize=17;fontColor=#666666;align=left;" vertex="1" parent="mXmLVD-JZLKuIexKcMJY-12">
          <mxGeometry x="130" y="60" width="250" height="26" as="geometry" />
        </mxCell>
      </root>
    </mxGraphModel>
  </diagram>
  <diagram name="lab-06.1" id="Sg-zeGS5ftyVvdhN2TFU">
    <mxGraphModel dx="1434" dy="836" grid="0" gridSize="10" guides="1" tooltips="1" connect="1" arrows="1" fold="1" page="1" pageScale="1" pageWidth="2339" pageHeight="3300" math="0" shadow="0">
      <root>
        <mxCell id="qBPcZge8E6uFPb93Szbt-0" />
        <mxCell id="qBPcZge8E6uFPb93Szbt-1" parent="qBPcZge8E6uFPb93Szbt-0" />
        <mxCell id="qBPcZge8E6uFPb93Szbt-2" style="edgeStyle=orthogonalEdgeStyle;rounded=0;orthogonalLoop=1;jettySize=auto;html=1;" edge="1" parent="qBPcZge8E6uFPb93Szbt-1" source="qBPcZge8E6uFPb93Szbt-3" target="qBPcZge8E6uFPb93Szbt-8">
          <mxGeometry relative="1" as="geometry" />
        </mxCell>
        <mxCell id="qBPcZge8E6uFPb93Szbt-3" value="" style="fillColor=none;strokeColor=#5A6C86;dashed=1;verticalAlign=top;fontStyle=0;fontColor=#5A6C86;whiteSpace=wrap;html=1;" vertex="1" parent="qBPcZge8E6uFPb93Szbt-1">
          <mxGeometry x="453" y="296" width="259" height="322" as="geometry" />
        </mxCell>
        <mxCell id="qBPcZge8E6uFPb93Szbt-4" style="edgeStyle=orthogonalEdgeStyle;rounded=0;orthogonalLoop=1;jettySize=auto;html=1;" edge="1" parent="qBPcZge8E6uFPb93Szbt-1" source="qBPcZge8E6uFPb93Szbt-5" target="qBPcZge8E6uFPb93Szbt-10">
          <mxGeometry relative="1" as="geometry" />
        </mxCell>
        <mxCell id="qBPcZge8E6uFPb93Szbt-5" value="Desktop" style="image;sketch=0;aspect=fixed;html=1;points=[];align=center;fontSize=12;image=img/lib/mscae/Docker.svg;" vertex="1" parent="qBPcZge8E6uFPb93Szbt-1">
          <mxGeometry x="492" y="327" width="100.95" height="82.78" as="geometry" />
        </mxCell>
        <mxCell id="qBPcZge8E6uFPb93Szbt-6" style="edgeStyle=orthogonalEdgeStyle;rounded=0;orthogonalLoop=1;jettySize=auto;html=1;" edge="1" parent="qBPcZge8E6uFPb93Szbt-1" source="qBPcZge8E6uFPb93Szbt-8">
          <mxGeometry relative="1" as="geometry">
            <mxPoint x="838" y="259" as="targetPoint" />
          </mxGeometry>
        </mxCell>
        <mxCell id="qBPcZge8E6uFPb93Szbt-7" value="BROWSER" style="edgeLabel;html=1;align=center;verticalAlign=middle;resizable=0;points=[];" vertex="1" connectable="0" parent="qBPcZge8E6uFPb93Szbt-6">
          <mxGeometry x="0.0566" y="-1" relative="1" as="geometry">
            <mxPoint x="-29" y="-1" as="offset" />
          </mxGeometry>
        </mxCell>
        <mxCell id="qBPcZge8E6uFPb93Szbt-8" value="" style="verticalLabelPosition=bottom;sketch=0;aspect=fixed;html=1;verticalAlign=top;strokeColor=none;align=center;outlineConnect=0;shape=mxgraph.citrix.laptop_2;" vertex="1" parent="qBPcZge8E6uFPb93Szbt-1">
          <mxGeometry x="597" y="153" width="118" height="87.99" as="geometry" />
        </mxCell>
        <mxCell id="qBPcZge8E6uFPb93Szbt-9" style="edgeStyle=orthogonalEdgeStyle;rounded=0;orthogonalLoop=1;jettySize=auto;html=1;" edge="1" parent="qBPcZge8E6uFPb93Szbt-1" source="qBPcZge8E6uFPb93Szbt-10" target="qBPcZge8E6uFPb93Szbt-11">
          <mxGeometry relative="1" as="geometry" />
        </mxCell>
        <mxCell id="qBPcZge8E6uFPb93Szbt-10" value="Jenkins" style="sketch=0;outlineConnect=0;fontColor=#232F3E;gradientColor=none;strokeColor=#232F3E;fillColor=#ffffff;dashed=0;verticalLabelPosition=bottom;verticalAlign=top;align=center;html=1;fontSize=12;fontStyle=0;aspect=fixed;shape=mxgraph.aws4.resourceIcon;resIcon=mxgraph.aws4.container_1;" vertex="1" parent="qBPcZge8E6uFPb93Szbt-1">
          <mxGeometry x="604" y="427" width="60" height="60" as="geometry" />
        </mxCell>
        <mxCell id="qBPcZge8E6uFPb93Szbt-11" value="Volume" style="sketch=0;outlineConnect=0;fontColor=#232F3E;gradientColor=none;strokeColor=#232F3E;fillColor=#ffffff;dashed=0;verticalLabelPosition=bottom;verticalAlign=top;align=center;html=1;fontSize=12;fontStyle=0;aspect=fixed;shape=mxgraph.aws4.resourceIcon;resIcon=mxgraph.aws4.volume;" vertex="1" parent="qBPcZge8E6uFPb93Szbt-1">
          <mxGeometry x="525" y="496" width="60" height="60" as="geometry" />
        </mxCell>
        <mxCell id="qBPcZge8E6uFPb93Szbt-12" value="" style="strokeWidth=1;shadow=0;dashed=0;align=center;html=1;shape=mxgraph.mockup.containers.browserWindow;rSize=0;strokeColor=#666666;strokeColor2=#008cff;strokeColor3=#c4c4c4;mainText=,;recursiveResize=0;" vertex="1" parent="qBPcZge8E6uFPb93Szbt-1">
          <mxGeometry x="749" y="264" width="337" height="164" as="geometry" />
        </mxCell>
        <mxCell id="qBPcZge8E6uFPb93Szbt-13" value="localhost" style="strokeWidth=1;shadow=0;dashed=0;align=center;html=1;shape=mxgraph.mockup.containers.anchor;fontSize=17;fontColor=#666666;align=left;whiteSpace=wrap;" vertex="1" parent="qBPcZge8E6uFPb93Szbt-12">
          <mxGeometry x="60" y="12" width="110" height="26" as="geometry" />
        </mxCell>
        <mxCell id="qBPcZge8E6uFPb93Szbt-14" value="http://localhost:8080" style="strokeWidth=1;shadow=0;dashed=0;align=center;html=1;shape=mxgraph.mockup.containers.anchor;rSize=0;fontSize=17;fontColor=#666666;align=left;" vertex="1" parent="qBPcZge8E6uFPb93Szbt-12">
          <mxGeometry x="130" y="60" width="250" height="26" as="geometry" />
        </mxCell>
      </root>
    </mxGraphModel>
  </diagram>
  <diagram name="lab-10.1" id="vPMokwJfudITySdWxTgo">
    <mxGraphModel dx="1434" dy="836" grid="0" gridSize="10" guides="1" tooltips="1" connect="1" arrows="1" fold="1" page="1" pageScale="1" pageWidth="2339" pageHeight="3300" math="0" shadow="0">
      <root>
        <mxCell id="0" />
        <mxCell id="1" parent="0" />
        <mxCell id="GJUM4xzoVdqlvuzT7j2A-3" style="edgeStyle=orthogonalEdgeStyle;rounded=0;orthogonalLoop=1;jettySize=auto;html=1;" parent="1" source="GJUM4xzoVdqlvuzT7j2A-1" target="GJUM4xzoVdqlvuzT7j2A-2" edge="1">
          <mxGeometry relative="1" as="geometry" />
        </mxCell>
        <mxCell id="GJUM4xzoVdqlvuzT7j2A-1" value="" style="shape=image;verticalLabelPosition=bottom;labelBackgroundColor=default;verticalAlign=top;aspect=fixed;imageAspect=0;image=data:image/png,iVBORw0KGgoAAAANSUhEUgAAASwAAACoCAMAAABt9SM9AAAAe1BMVEX///8AAAAQEBB9fX3r6+u6urqnp6eNjY2AgICRkZEpKSmzs7Pb29stLS3z8/Pw8PDh4eH5+fllZWWdnZ3Q0NBfX1/Jycne3t5qamozMzOHh4e2traqqqpBQUFSUlK/v786OjpycnIiIiKfn59MTEwaGhoVFRVNTU1FRUX9/bFcAAAJ60lEQVR4nO1d63qiMBBtKmqtrJdqqba2im67ff8nXAFDbpNAIDgker7+KUJMjmEymVseHu644yawjOJ1csY6jpbYfekxov1ksyUCtpvJPsLuV+8Q7TZEi83uTliJxeRZz1SB58kCu5e9wO5PFVMF/uywe4qNaFCPqQJPt/w6RgZBBWNzq3TNUluqMqQz7H5jYNWEqgwr7J5fHfF3U64I+Y6xe39dPDWnKsMTdv+viOjYjitCjjcj6IdtqcowxB7FdTB2wRUhY+xxXAOvbrgi5BV7JN3j0xVXhHxij6VrbKs5qI8t9mi6hVOuAmfr4JYrQg7YI+oOX665IuQLe0xdwcocUxcD7FF1g2kXXBEyxR5XF3jrhitC3rBH1gHkMQ6Ho4H9HjEdDff/pGvYI3MP2ShaGA6ik42pZlxMokS6vMEcVxeQB0jW5Sd1dXomnORPEpQhdQdl6Nxn6zr+HV6OK9vLa4+mWyhag6gflQvl9uX9NN0n63Wy/xhN0nLSiSaGkdxaUPrDQpkosoFlQ7bvQ8CROk9WX2QrfaC80yQkF+xfZXSKx9QmCiRSmvvrsLPIWCuDI/s27S3V9tbVT3kCYP/cbgFT2zs46WgPAEws52QFM7UgY0Mrf8MMaDAQ84Mqjs84tWkR3GaG4Rx7h4aWtmkR9KW9u+ovKqCRkZ82LcL+bFf9xcQeHFkrwwrcYittpCfQxGC1ETGwKT8E4wPMVauVHlBKw3gP1X1chkm7RiHNLQRLDbgWHtu2Cvo+/F8Pwajt9nMAavXZQXdRAYqXQ/t2wSBL3/NXQJHlYJEHfwTfhRY4A1w0/AK063toLqRltdrqUEBbHt81LUi+O4lwhCwPvkt46C10Yx+AHI5OGkbDHCLLTdOQ0Jq7aRoJcXcvCxTH63c2AaQ5OPLEnICm/dYdoDXLUZTxDmja7+B4aEQdkuV3/qbiaCfOXAtQ0yM3TSMBUuB/u2vabxUeksKOVkPI9tPKZ4QO6F1xpGelwb2GYNCtm6bVYBPfg3FBD5+b+CCoZb9Vh67MWUEatEBHu5NMQdBn4XeUN2RIcZP6BloVPS9jAA3Jia38F2rYQbuYAHPmPtq3C07ZQ/t2UZFCg3Kw4QEVOCf2akSAg3JgKwUTWfzWSXWO9tZx63BojvehkuCoWk8tuDqZkw5jAs7MaSm14Jfb/2z8CTy1Wu3iwCjV1qE5PQAstNptEDVpin67K3JoyGrhtoLsDRkcdhoL2jTypkJex1UIqWG697ChjWCuLdPpveKQQUtWk5ph+hT+R/c9R4CpuJ/lLjE2lBzx21lBwe15j5PdSJRhPxauvkQnrXJ4bp6hYDFahb4gvUqbfR2TzRqM5GXwfRNNwZJ+X4oLS1mt/xzvDXpXlKX+ViGYxF+WLf91mUTg4EFz8/CxkqcM4ZRp4/PJLw4YwCioKYZVr6RwMBNLHHAh0YEoN52SWoerUCRWBsEIXCiPShCMdrx1qiMFshQWEHStQm7J5Xf02+BqrsLQsUrwhoIX9ZJRAa+UWr5HKcsQvK3Fi7gUhLxB6lS+h377VgHwRkC67vExtAZrIBTFy8N/o58CfltH7Q2zVaGebqYmJV5jGKU4dN/3q4NfEXkT/KzSCqhJXKUIaiWk4A1bdjqkkasgzFgqOJ+MXelaE1e+O1a14OoxWCVwGbgK+MwBTmOy8RzqufI9ac4IvlpffbOflqtwbA0ghFyudLgoVIZoPTKtiTfKlSYGiZjXR80jIZkaNND48+3JuolDLODDUazJchA+6AMWkKXYQBaowQe3edYCSNk1DB4gK3jRzuOjHVl+5xVaYynXRzaQJUcmf/mdN94EyY/AgCG4SiIrhAps9tg1ISswc7sFuNxNg6VldqeqwJTWgq+x3XkM1hxTG3EeVmOsqpYbwjZ+58c5QzKtiJ19m96mVL/jjjvuuMM7xB+r96czxqtpEkZx9o4wP8k5y/9WAQXjucQCKilHyMEy82j0/VzgUXhwebn6fKxnxVoe7e6/LrRB16yz09ft31VVBDeLkBcqf3BxIbW6Y3v/NbHUn/Q1km6pCEuoJKtexont/VcEWDPgAvo2lXSa5X74ZIkmPBGXW5jdyixEgifLdDg7DWfgMgToY/PoAj64KnSyYB/gBdRSx3m+qDqh0vcQPlkKQY/bw5YW8qXynFsBIvk5fjyBkyVG/n/u6MRZvn2kbNJwSXP00i2SxUv3H1kxKJc+lrpT2oVvkCw+StRUUJNOQBbAdoNkcWGP38Ybk1zGc/HqN0gWt8xVbQPjvfCW3h5Z3CbMdst6e2RxdZnMu745RXmlfPBnmX+Q77E1ZM0tBy+QtZymeYrQ9wa5hikXw2e8j4XMFFIrHqkmnex6vZnF8qvL5ZYl6CXC/cdI+CLUYsKsJ+YIa5YsMD7/1HBueDa1GFmCl5Bt1XOyWMWQUk6yXy0LB9Sn+mAeoMxS4Mx+dYEs9fxtgKz0tFoVf6vTiVGRk8X2A9ZkYVbYYp0we9btydKgNVmIQbusD6W5fTIW8J4L/h6RhXbMLWf2o4YWJac+L9PUJ7Kw6kYBtm6FrDwPqU9kYZnlF2oPekfW7yiOojWvQCAFLjUj6yE+gz36uIjzC9l9DsjKNE9G1pbKUq5SAlJCdUOycojjv8A5WUz9Yy5gpGPfuemuFfC4ZL2UTQ/FNq4PbjWk090VWa950MQFA/HmRmRxfe2SEgNYB+g+WnEiNiRL2O5IG+lGZHF9RTq4lXWgTA+JkzPWrPMNyTJtpJuRxapKIKmlbP8vqXpMQvSGLFYuEImstOyAZFRmNpnekMVsHUhkcXUaxFisHpLFZhZSlhTn3BFj/ntIFpNZWCdzM7LELvSQLObhdEmADbioEMFj0UOyWE9dEmADPiyE33NZkPXDPdYhWewanrGUI4uvsmChOthH0TCySgNCNVns58MrBiHWaBjHl/ofrOJaNVmcd7YeWUxUl6sK+z4dWcxdgOjiIRXQkcWKI34zraMeWZygLHZZMWeuEskim8s+LJWfQUFV7UIdWXzA4J9N+rrN7Bb1yOICLMhhMBBDDyWyzvhKxVuuyY4MU5ikgSylRnyWfF+PLOPvo5IlAbd+jT6w20SWYlzOXsZ6ZJnCo6vJwj1BxRAGbyBLOXGvPlnGyVxFFpKdlMHUeS1Z8tSyIMtERhVZ+OUz9CHLRbwyRJb8kAVZ0PcdflWy3tUDL3pReXIEpQ58U5WGkcXvt8UjZjIBn5b/CeWeVP+kfCzucUjXSJ6svXKkWF+OfIon4lELvyvWsxm1qA9ES86O/fSvmTqbDOh9os2pNMaz+JMTJykH2XyJ03RwRv5g8XWDrMkPJiOe+1UVYpFMT6vJ5LRL6qYaLuP9dNcslXOWfdlqtK989m0/Op27hC+t7rhDh/9+G3dkj6wn6AAAAABJRU5ErkJggg==;" parent="1" vertex="1">
          <mxGeometry x="66" y="415.56" width="108.71" height="60.88" as="geometry" />
        </mxCell>
        <mxCell id="GJUM4xzoVdqlvuzT7j2A-17" style="edgeStyle=orthogonalEdgeStyle;rounded=0;orthogonalLoop=1;jettySize=auto;html=1;" parent="1" source="GJUM4xzoVdqlvuzT7j2A-2" edge="1">
          <mxGeometry relative="1" as="geometry">
            <mxPoint x="446" y="446" as="targetPoint" />
          </mxGeometry>
        </mxCell>
        <mxCell id="GJUM4xzoVdqlvuzT7j2A-2" value="" style="shape=image;verticalLabelPosition=bottom;labelBackgroundColor=default;verticalAlign=top;aspect=fixed;imageAspect=0;image=https://logowik.com/content/uploads/images/jenkins8460.jpg;" parent="1" vertex="1">
          <mxGeometry x="254" y="401" width="119.91" height="90" as="geometry" />
        </mxCell>
        <mxCell id="GJUM4xzoVdqlvuzT7j2A-15" value="&lt;b&gt;CI&lt;/b&gt;" style="fillColor=none;strokeColor=#5A6C86;dashed=1;verticalAlign=top;fontStyle=0;fontColor=#5A6C86;whiteSpace=wrap;html=1;" parent="1" vertex="1">
          <mxGeometry x="476" y="152.5" width="266" height="587" as="geometry" />
        </mxCell>
      </root>
    </mxGraphModel>
  </diagram>
</mxfile>
